<svg xmlns="http://www.w3.org/2000/svg" width="1200" height="260" viewBox="0 0 1200 260" role="img" aria-labelledby="title desc">
<title id="title">Experimental biology, omics and scientific AI</title><desc id="desc">Three complementary research areas: experimental models, transcriptomics, and AI-assisted workflows. Decorative schematic, not experimental data.</desc>
<defs><linearGradient id="bg" x2="1" y2="1"><stop stop-color="#07101f"/><stop offset="1" stop-color="#18142d"/></linearGradient><pattern id="grid" width="24" height="24" patternUnits="userSpaceOnUse"><path d="M24 0H0V24" fill="none" stroke="#8ba6ce" stroke-opacity=".07"/></pattern></defs>
<rect width="1200" height="260" rx="20" fill="url(#bg)"/><rect width="1200" height="260" rx="20" fill="url(#grid)"/>
<path d="M400 30V230M800 30V230" stroke="#697797" stroke-opacity=".3"/>
<g font-family="Segoe UI,Arial,sans-serif"><text x="30" y="40" fill="#68efd0" font-size="14" letter-spacing="1.2">01 / EXPERIMENTAL BIOLOGY</text><text x="30" y="203" fill="#eef3ff" font-size="21">Cells. Proteins. Models.</text><text x="30" y="233" fill="#9baecc" font-size="15">Observe &amp; test</text></g><g font-family="Segoe UI,Arial,sans-serif"><text x="430" y="40" fill="#8dbbff" font-size="14" letter-spacing="1.2">02 / OMICS ANALYSIS</text><text x="430" y="203" fill="#eef3ff" font-size="21">Transcriptomes. Visual evidence.</text><text x="430" y="233" fill="#9baecc" font-size="15">Analyze &amp; interpret</text></g><g font-family="Segoe UI,Arial,sans-serif"><text x="830" y="40" fill="#c0a1ff" font-size="14" letter-spacing="1.2">03 / SCIENTIFIC AI</text><text x="830" y="203" fill="#eef3ff" font-size="21">Literature. Tools. Workflows.</text><text x="830" y="233" fill="#9baecc" font-size="15">Connect &amp; build</text></g><g fill="none" stroke="#68efd0" stroke-width="2"><ellipse cx="186" cy="113" rx="76" ry="46"/><ellipse cx="186" cy="113" rx="27" ry="20"/><path d="M132 94l14 13m78 17l15 8m-89-1l-9 10M214 84l12 9"/></g>
<g fill="none" stroke="#8dbbff" stroke-width="3"><path d="M474 146h245" opacity=".3"/><path d="M490 142v-24m27 24V92m27 50V65m27 77V83m27 59v-38m27 38V74m27 68V95m27 47v-21m27 21V88"/></g>
<g fill="none" stroke="#c0a1ff" stroke-width="2"><path d="M906 83l77 33 81-33m-158 63l77-30 81 30"/><circle cx="906" cy="83" r="13"/><circle cx="906" cy="146" r="13"/><circle cx="983" cy="116" r="21"/><circle cx="1064" cy="83" r="13"/><circle cx="1064" cy="146" r="13"/></g></svg>